<svg width="42" height="72" viewBox="0 0 42 72" fill="none" xmlns="http://www.w3.org/2000/svg">
<path d="M15.5716 36L39.6436 12.105C40.9101 10.8403 41.621 9.12946 41.621 7.34621C41.621 5.56295 40.9101 3.85216 39.6436 2.58746C39.0114 1.95479 38.2594 1.45263 37.4307 1.10994C36.6021 0.767252 35.7133 0.59082 34.8156 0.59082C33.9179 0.59082 33.0291 0.767252 32.2005 1.10994C31.3718 1.45263 30.6197 1.95479 29.9876 2.58746L1.15559 31.2075C0.51824 31.835 0.0123607 32.5815 -0.332866 33.4041C-0.678093 34.2266 -0.855835 35.1089 -0.855835 36C-0.855835 36.891 -0.678093 37.7733 -0.332866 38.5959C0.0123607 39.4184 0.51824 40.165 1.15559 40.7925L29.9876 69.75C30.623 70.3756 31.3765 70.8705 32.205 71.2064C33.0335 71.5423 33.9207 71.7126 34.8156 71.7075C35.7105 71.7126 36.5977 71.5423 37.4262 71.2064C38.2547 70.8705 39.0082 70.3756 39.6436 69.75C40.9101 68.4853 41.621 66.7745 41.621 64.9912C41.621 63.208 40.9101 61.4972 39.6436 60.2325L15.5716 36Z" fill="#28CAB8"/>
</svg>
