<svg width="70" height="90" viewBox="0 0 315 315" fill="none" xmlns="http://www.w3.org/2000/svg">
<path d="M100.322 209.809C97.1554 212.468 95.1653 216.268 94.7831 220.385C94.4008 224.502 95.6571 228.604 98.2795 231.8C99.5982 233.391 101.218 234.706 103.045 235.67C104.873 236.633 106.873 237.227 108.93 237.417C110.988 237.606 113.062 237.388 115.035 236.775C117.008 236.162 118.841 235.165 120.428 233.842C130.929 225.376 144.011 220.759 157.5 220.759C170.989 220.759 184.071 225.376 194.572 233.842C196.159 235.165 197.992 236.162 199.965 236.775C201.938 237.388 204.012 237.606 206.07 237.417C208.127 237.227 210.127 236.633 211.954 235.67C213.782 234.706 215.402 233.391 216.72 231.8C219.343 228.604 220.599 224.502 220.217 220.385C219.834 216.268 217.844 212.468 214.678 209.809C198.469 196.78 178.296 189.677 157.5 189.677C136.703 189.677 116.531 196.78 100.322 209.809ZM110.375 141.792C113.482 141.792 116.519 140.87 119.102 139.144C121.685 137.418 123.699 134.965 124.888 132.095C126.076 129.224 126.388 126.066 125.781 123.019C125.175 119.972 123.679 117.173 121.482 114.976C119.286 112.779 116.487 111.283 113.439 110.677C110.392 110.071 107.234 110.382 104.364 111.571C101.493 112.76 99.04 114.773 97.3139 117.356C95.5878 119.939 94.6666 122.976 94.6666 126.083C94.6666 130.249 96.3216 134.245 99.2674 137.191C102.213 140.137 106.209 141.792 110.375 141.792ZM157.5 0.416626C126.432 0.416626 96.0613 9.6294 70.2291 26.8899C44.3969 44.1505 24.2631 68.6835 12.3738 97.3868C0.484566 126.09 -2.62621 157.674 3.43489 188.145C9.49598 218.617 24.4567 246.606 46.4252 268.575C68.3937 290.543 96.3833 305.504 126.854 311.565C157.326 317.626 188.91 314.515 217.613 302.626C246.316 290.737 270.849 270.603 288.11 244.771C305.37 218.939 314.583 188.568 314.583 157.5C314.583 136.871 310.52 116.445 302.626 97.3868C294.732 78.3285 283.161 61.0118 268.575 46.4253C253.988 31.8387 236.671 20.2681 217.613 12.3739C198.555 4.47971 178.128 0.416626 157.5 0.416626ZM157.5 283.167C132.645 283.167 108.349 275.796 87.6832 261.988C67.0175 248.18 50.9105 228.553 41.399 205.591C31.8876 182.628 29.399 157.361 34.2479 132.984C39.0968 108.607 51.0654 86.215 68.6402 68.6402C86.215 51.0654 108.607 39.0968 132.984 34.2479C157.361 29.3991 182.628 31.8877 205.59 41.3991C228.553 50.9105 248.179 67.0175 261.988 87.6833C275.796 108.349 283.167 132.645 283.167 157.5C283.167 190.829 269.927 222.793 246.36 246.36C222.793 269.927 190.829 283.167 157.5 283.167ZM204.625 110.375C201.518 110.375 198.481 111.296 195.898 113.022C193.315 114.748 191.301 117.202 190.112 120.072C188.923 122.942 188.612 126.101 189.218 129.148C189.825 132.195 191.321 134.994 193.517 137.191C195.714 139.388 198.513 140.884 201.56 141.49C204.607 142.096 207.766 141.785 210.636 140.596C213.507 139.407 215.96 137.394 217.686 134.81C219.412 132.227 220.333 129.19 220.333 126.083C220.333 121.917 218.678 117.922 215.732 114.976C212.786 112.03 208.791 110.375 204.625 110.375Z" fill="white"/>
</svg>
